<svg xmlns="http://www.w3.org/2000/svg" viewBox="0 0 128 128">
    <g fill="none" fill-rule="nonzero" transform="translate(5 5)">
        <circle cx="59" cy="59" r="59" fill="#10A37F" stroke="#10A37F" stroke-width="9" />
        <path fill="#E5E7EB"
            d="M76.397 67.004c-1.545 5.815-5.642 8.127-10.356 9.47-.464.148-.386.595-.386.595l.695 4.623s.077.373.696.298C83.66 80.2 94.714 68.047 92.78 53.285c-2.01-10.215-10.356-14.167-17.93-13.123-7.652 1.193-12.908 8.053-11.67 15.434 1.004 6.561 6.646 11.184 13.215 11.408Z" />
        <path fill="#FFF"
            d="M26.16 55.596c1.005 6.487 6.722 11.11 13.211 11.408-1.622 5.815-5.562 8.127-10.352 9.47-.464.148-.387.595-.387.595l.773 4.623s.077.373.695.298c16.534-1.79 27.736-13.943 25.65-28.705-1.93-10.215-10.198-14.167-17.846-13.123C30.254 41.355 25 48.215 26.16 55.596Z" />
    </g>
</svg>